<svg xmlns="http://www.w3.org/2000/svg" width="30.527" height="256.146" viewBox="0 0 30.527 256.146">
  <path id="Rounded_Rectangle_948_copy_5" data-name="Rounded Rectangle 948 copy 5" d="M.795,256.146a.794.794,0,1,1,0-1.589H29.732a.794.794,0,1,1,0,1.589ZM9.969,248.2a.8.8,0,1,1,0-1.6H29.727a.8.8,0,0,1,0,1.6Zm0-7.949a.8.8,0,1,1,0-1.6H29.727a.8.8,0,0,1,0,1.6Zm0-7.96a.8.8,0,1,1,0-1.6H29.727a.8.8,0,0,1,0,1.6ZM.8,224.348a.8.8,0,1,1,0-1.6H29.727a.8.8,0,0,1,0,1.6Zm9.168-7.961a.8.8,0,1,1,0-1.6H29.727a.8.8,0,0,1,0,1.6Zm-.006-7.961a.794.794,0,1,1,0-1.589h19.77a.794.794,0,0,1,0,1.589Zm0-7.957a.794.794,0,1,1,0-1.589h19.77a.794.794,0,0,1,0,1.589ZM.8,192.521a.8.8,0,1,1,0-1.6H29.727a.8.8,0,0,1,0,1.6Zm9.168-7.948a.8.8,0,1,1,0-1.6H29.727a.8.8,0,0,1,0,1.6ZM9.955,176.6a.786.786,0,1,1,0-1.572H29.741a.786.786,0,0,1,0,1.572Zm.008-7.944a.795.795,0,0,1,0-1.589h19.77a.795.795,0,0,1,0,1.589ZM.787,160.678a.786.786,0,1,1,0-1.572H29.741a.786.786,0,1,1,0,1.572Zm9.176-7.944a.794.794,0,1,1,0-1.588h19.77a.794.794,0,0,1,0,1.588Zm.006-7.944a.8.8,0,1,1,0-1.6H29.727a.8.8,0,0,1,0,1.6Zm-.009-7.965a.792.792,0,0,1,0-1.585H29.735a.792.792,0,0,1,0,1.585ZM.8,128.88a.8.8,0,1,1,0-1.6H29.727a.8.8,0,0,1,0,1.6Zm9.162-7.957a.794.794,0,1,1,0-1.589h19.77a.794.794,0,0,1,0,1.589Zm.006-7.949a.8.8,0,1,1,0-1.6H29.727a.8.8,0,0,1,0,1.6Zm0-7.961a.8.8,0,1,1,0-1.6H29.727a.8.8,0,0,1,0,1.6ZM.8,97.053a.8.8,0,1,1,0-1.6H29.727a.8.8,0,0,1,0,1.6Zm9.168-7.944a.8.8,0,1,1,0-1.6H29.727a.8.8,0,0,1,0,1.6Zm.005-7.949a.807.807,0,0,1,0-1.614H29.721a.807.807,0,0,1,0,1.614Zm-.02-7.978a.786.786,0,1,1,0-1.572H29.741a.786.786,0,0,1,0,1.572Zm-9.16-7.94a.795.795,0,1,1,0-1.589H29.732a.795.795,0,1,1,0,1.589Zm9.16-7.978a.786.786,0,1,1,0-1.572H29.741a.786.786,0,0,1,0,1.572Zm.008-7.944a.794.794,0,1,1,0-1.588h19.77a.794.794,0,0,1,0,1.588Zm0-7.96a.795.795,0,0,1,0-1.589h19.77a.795.795,0,0,1,0,1.589ZM.795,33.416a.795.795,0,1,1,0-1.589H29.732a.795.795,0,1,1,0,1.589Zm9.175-7.949a.8.8,0,1,1,0-1.6H29.727a.8.8,0,0,1,0,1.6Zm-.006-7.961a.795.795,0,1,1,0-1.589h19.77a.795.795,0,0,1,0,1.589Zm0-7.957a.795.795,0,0,1,0-1.589h19.77a.795.795,0,0,1,0,1.589ZM.792,1.585A.792.792,0,0,1,.792,0H29.735a.792.792,0,0,1,0,1.585Z" fill="#fff" opacity="0.741"/>
</svg>
